#!OML:ASF E:\Steps\Project 1\Capture day 1\Session 2\Subject.ASF
:FULLY-SPECIFIED
:DEGREES
145
root 8.91828 16.375 9.80433 -151.2 4.8231 -180.148
lowerback -27.8512 -1.34806 -5.25773
upperback -2.53831 0.669913 -0.475442
thorax 12.6278 0.346565 2.81573
lowerneck 7.46937 -2.8738 4.53131
upperneck -5.21264 -3.55051 -2.57367
head -3.14879 -1.76074 -1.46034
rclavicle -1.44119e-014 1.59028e-015
rhumerus -35.89 -16.2527 -80.9824
rradius 31.2895
rwrist 0.620079
rhand -7.64791 -51.9544
rfingers 7.12502
rthumb 18.2476 -81.1185
lclavicle -1.44119e-014 1.59028e-015
lhumerus -29.7846 5.8873 81.6625
lradius 21.8092
lwrist -7.2804
lhand -19.1673 -12.7029
lfingers 7.12502
lthumb 7.14362 17.1565
rfemur -27.1916 7.7281 17.7061
rtibia 7.8182
rfoot -19.0288 -10.2777
rtoes -25.5789
lfemur -27.4786 -10.1493 -16.0654
ltibia 7.82572
lfoot -7.4643 4.12198
ltoes -46.4872
146
root 8.91934 16.3751 9.80896 -151.186 4.82139 -180.125
lowerback -27.861 -1.36254 -5.28118
upperback -2.55465 0.655131 -0.435899
thorax 12.6143 0.338857 2.86937
lowerneck 7.62069 -2.88021 4.62992
upperneck -5.39101 -3.55321 -2.7081
head -3.24626 -1.75883 -1.52164
rclavicle -5.76476e-015 2.50469e-014
rhumerus -35.8747 -16.0603 -81.067
rradius 31.5221
rwrist 0.597192
rhand -7.38588 -51.4148
rfingers 7.12502
rthumb 18.4997 -80.5551
lclavicle -5.76476e-015 2.50469e-014
lhumerus -29.8296 5.40911 81.9572
lradius 22.4392
lwrist -6.75117
lhand -19.4704 -12.5774
lfingers 7.12502
lthumb 6.85104 17.2918
rfemur -27.2507 7.69394 17.7484
rtibia 7.86271
rfoot -18.9912 -10.2825
rtoes -26.0333
lfemur -27.5111 -9.9484 -16.0936
ltibia 7.85014
lfoot -7.46117 3.97345
ltoes -46.9305
147
root 8.92107 16.3755 9.81303 -151.245 4.81409 -180.088
lowerback -27.8006 -1.35476 -5.2767
upperback -2.54912 0.653151 -0.414469
thorax 12.5886 0.336495 2.88955
lowerneck 7.72374 -2.8888 4.72524
upperneck -5.56936 -3.56037 -2.83017
head -3.33459 -1.75967 -1.57871
rclavicle -5.96354e-016 -1.23246e-014
rhumerus -35.8196 -15.9243 -81.1589
rradius 31.6934
rwrist 0.540255
rhand -7.27214 -50.8346
rfingers 7.12502
rthumb 18.6091 -79.9645
lclavicle -5.96354e-016 -1.23246e-014
lhumerus -29.8675 4.76648 82.31
lradius 22.996
lwrist -6.06093
lhand -19.9331 -12.9234
lfingers 7.12502
lthumb 6.40443 16.9598
rfemur -27.219 7.73031 17.8
rtibia 7.87924
rfoot -18.9203 -10.367
rtoes -26.1761
lfemur -27.4625 -9.85963 -16.0635
ltibia 7.85225
lfoot -7.44783 3.92767
ltoes -46.9114
148
root 8.92186 16.3753 9.8186 -151.187 4.79106 -180.025
lowerback -27.9034 -1.3273 -5.21897
upperback -2.52819 0.676576 -0.403128
thorax 12.6658 0.346865 2.87971
lowerneck 7.7518 -2.8998 4.82273
upperneck -5.74484 -3.57349 -2.94885
head -3.40798 -1.76396 -1.63554
rclavicle 1.22253e-014 -1.98785e-015
rhumerus -35.711 -15.7922 -81.3041
rradius 31.9484
rwrist 0.389072
rhand -6.84995 -50.2662
rfingers 7.12502
rthumb 19.0151 -79.3568
lclavicle 1.22253e-014 -1.98785e-015
lhumerus -29.7957 4.21157 82.6137
lradius 23.4849
lwrist -5.63173
lhand -20.1557 -13.455
lfingers 7.12502
lthumb 6.18955 16.4346
rfemur -27.3314 7.83089 17.8355
rtibia 7.93599
rfoot -18.9499 -10.3888
rtoes -25.8273
lfemur -27.5626 -9.92558 -15.9194
ltibia 7.85094
lfoot -7.43641 4.02834
ltoes -46.5388
149
root 8.92151 16.3739 9.82811 -151.035 4.76591 -180.05
lowerback -27.9988 -1.32662 -5.23167
upperback -2.58579 0.70377 -0.427636
thorax 12.6471 0.367144 2.87126
lowerneck 7.82329 -2.92365 4.93199
upperneck -5.91564 -3.60051 -3.06599
head -3.48944 -1.77511 -1.6931
rclavicle 9.24349e-015 -9.14409e-015
rhumerus -35.6884 -15.6241 -81.4663
rradius 32.2831
rwrist 0.141082
rhand -6.81124 -50.345
rfingers 7.12502
rthumb 19.0524 -79.4319
lclavicle 9.24349e-015 -9.14409e-015
lhumerus -29.7436 3.83092 82.8081
lradius 23.9179
lwrist -5.43045
lhand -20.1913 -13.4343
lfingers 7.12502
lthumb 6.15516 16.4562
rfemur -27.5794 7.86749 17.7622
rtibia 8.01809
rfoot -18.9987 -10.4232
rtoes -25.8035
lfemur -27.8158 -9.93788 -15.89
ltibia 7.91228
lfoot -7.426 3.99576
ltoes -46.1102
150
root 8.91871 16.375 9.82744 -151.151 4.85828 -180.108
lowerback -27.9135 -1.28833 -5.27807
upperback -2.58472 0.765011 -0.466454
thorax 12.5983 0.394112 2.87499
lowerneck 7.92157 -2.93944 5.02513
upperneck -6.08942 -3.61756 -3.18605
head -3.5767 -1.78052 -1.74937
rclavicle -1.39149e-015 1.19271e-014
rhumerus -35.7248 -15.4064 -81.6152
rradius 32.6581
rwrist -0.0953219
rhand -7.02023 -50.7633
rfingers 7.12502
rthumb 18.8514 -79.8699
lclavicle -1.39149e-015 1.19271e-014
lhumerus -29.7188 3.55521 82.997
lradius 24.3746
lwrist -5.18764
lhand -20.3003 -12.9018
lfingers 7.12502
lthumb 6.04993 16.9918
rfemur -27.4416 7.63783 17.738
rtibia 7.94594
rfoot -18.959 -10.1911
rtoes -25.7823
lfemur -27.6319 -10.0426 -15.9905
ltibia 7.80873
lfoot -7.38705 4.12773
ltoes -46.2503
151
root 8.91739 16.3747 9.82776 -151.2 4.901 -180.117
lowerback -27.9197 -1.26489 -5.27686
upperback -2.5814 0.795911 -0.472205
thorax 12.6029 0.407935 2.8794
lowerneck 8.04923 -2.94329 5.06349
upperneck -6.27184 -3.62259 -3.29414
head -3.67053 -1.7787 -1.79243
rclavicle 1.71949e-014 -5.1684e-015
rhumerus -35.7486 -15.2509 -81.7183
rradius 33.074
rwrist -0.119512
rhand -6.84086 -51.5054
rfingers 7.12502
rthumb 19.0239 -80.595
lclavicle 1.71949e-014 -5.1684e-015
lhumerus -29.6821 3.33362 83.1967
lradius 24.8209
lwrist -4.97272
lhand -20.1737 -12.8311
lfingers 7.12502
lthumb 6.17208 17.059
rfemur -27.3716 7.42817 17.768
rtibia 7.89826
rfoot -18.9631 -9.94075
rtoes -25.2614
lfemur -27.5329 -10.0945 -16.0164
ltibia 7.72601
lfoot -7.35203 4.2554
ltoes -46.8479
152
root 8.91733 16.375 9.82745 -151.344 4.9206 -180.144
lowerback -27.8702 -1.25768 -5.32301
upperback -2.51327 0.804431 -0.467303
thorax 12.655 0.400528 2.91357
lowerneck 8.17973 -2.94931 5.12846
upperneck -6.46349 -3.62761 -3.40223
head -3.7694 -1.7774 -1.84062
rclavicle -2.18663e-015 1.82882e-014
rhumerus -35.6921 -15.0515 -81.8387
rradius 33.4228
rwrist -0.243401
rhand -6.77592 -52.0044
rfingers 7.12502
rthumb 19.0863 -81.0879
lclavicle -2.18663e-015 1.82882e-014
lhumerus -29.5802 3.14596 83.3772
lradius 25.1856
lwrist -4.89
lhand -20.2064 -13.175
lfingers 7.12502
lthumb 6.14057 16.716
rfemur -27.1897 7.4344 17.7417
rtibia 7.86329
rfoot -19.0121 -9.8617
rtoes -24.9912
lfemur -27.3214 -10.1607 -16.0681
ltibia 7.63546
lfoot -7.35906 4.35007
ltoes -47.0617
153
root 8.91732 16.3769 9.82624 -151.541 4.91572 -180.154
lowerback -27.7474 -1.26265 -5.36623
upperback -2.44098 0.784157 -0.438283
thorax 12.6749 0.378679 2.9615
lowerneck 8.30605 -2.95356 5.2484
upperneck -6.65854 -3.62635 -3.53718
head -3.87136 -1.77321 -1.90884
rclavicle 1.54058e-014 0
rhumerus -35.5993 -14.7688 -81.9524
rradius 33.5946
rwrist -0.517775
rhand -7.17166 -51.2336
rfingers 7.12502
rthumb 18.7057 -80.3542
lclavicle 1.54058e-014 0
lhumerus -29.4968 2.88806 83.5527
lradius 25.6256
lwrist -4.61158
lhand -20.1518 -12.8983
lfingers 7.12502
lthumb 6.19325 16.9912
rfemur -26.9359 7.47753 17.7376
rtibia 7.80104
rfoot -19.0268 -9.86876
rtoes -24.953
lfemur -27.0886 -10.2496 -16.0944
ltibia 7.60447
lfoot -7.4131 4.38285
ltoes -46.5845
154
root 8.92201 16.3756 9.84307 -151.31 4.71691 -180.116
lowerback -27.7925 -1.36738 -5.37909
upperback -2.54557 0.66021 -0.364371
thorax 12.5863 0.332116 3.00876
lowerneck 8.44285 -2.95448 5.36577
upperneck -6.85124 -3.62064 -3.67524
head -3.97484 -1.76641 -1.97834
rclavicle 3.77691e-015 -1.15295e-014
rhumerus -35.562 -14.4959 -82.0732
rradius 33.7632
rwrist -0.710012
rhand -7.43633 -50.7519
rfingers 7.12502
rthumb 18.4511 -79.8969
lclavicle 3.77691e-015 -1.15295e-014
lhumerus -29.4408 2.6001 83.7223
lradius 26.0912
lwrist -4.14604
lhand -19.599 -12.0992
lfingers 7.12502
lthumb 6.7269 17.7739
rfemur -27.2552 7.61492 17.7774
rtibia 7.87068
rfoot -19.0248 -10.2029
rtoes -25.2923
lfemur -27.5525 -10.0782 -15.9558
ltibia 7.83986
lfoot -7.46598 4.04773
ltoes -46.1979
